<?xml version="1.0" standalone="no"?>
<!DOCTYPE svg PUBLIC "-//W3C//DTD SVG 20010904//EN"
 "http://www.w3.org/TR/2001/REC-SVG-20010904/DTD/svg10.dtd">
<svg version="1.0" xmlns="http://www.w3.org/2000/svg"
 width="512.000000pt" height="512.000000pt" viewBox="0 0 512.000000 512.000000"
 preserveAspectRatio="xMidYMid meet">
<g transform="translate(0.000000,512.000000) scale(0.100000,-0.100000)"
fill="#000000" stroke="none">
<path d="M282 4245 c-57 -25 -100 -65 -127 -118 l-25 -51 0 -1516 0 -1516 25
-51 c57 -113 198 -165 310 -114 23 10 447 289 943 620 496 330 904 601 907
601 2 0 6 -242 7 -538 l3 -539 30 -49 c65 -105 199 -144 308 -90 28 14 549
358 1157 763 1259 841 1165 767 1165 913 0 146 94 72 -1165 913 -608 405
-1129 749 -1157 763 -109 54 -243 15 -308 -90 l-30 -49 -3 -539 c-1 -296 -5
-538 -7 -538 -3 0 -411 271 -907 601 -496 331 -920 610 -943 620 -48 22 -137
24 -183 4z"/>
</g>
</svg>
