<?xml version="1.0" standalone="no"?>
<!DOCTYPE svg PUBLIC "-//W3C//DTD SVG 20010904//EN"
 "http://www.w3.org/TR/2001/REC-SVG-20010904/DTD/svg10.dtd">
<svg version="1.0" xmlns="http://www.w3.org/2000/svg"
 width="512.000000pt" height="512.000000pt" viewBox="0 0 512.000000 512.000000"
 preserveAspectRatio="xMidYMid meet">
<g transform="translate(0.000000,512.000000) scale(0.100000,-0.100000)"
fill="#000000" stroke="none">
<path d="M290 4249 c-50 -20 -102 -64 -128 -108 l-27 -46 0 -1535 c0 -1709 -6
-1557 67 -1630 68 -68 179 -90 264 -51 22 10 449 291 947 623 l907 605 2 -542
3 -542 30 -49 c65 -105 199 -144 308 -90 28 14 549 358 1157 764 1259 840
1165 766 1165 912 0 146 94 72 -1165 912 -608 406 -1129 750 -1157 764 -109
54 -243 15 -308 -90 l-30 -49 -3 -542 -2 -542 -907 605 c-498 332 -925 613
-947 623 -45 20 -135 24 -176 8z m233 -86 c40 -26 76 -48 80 -48 4 0 11 -5 15
-11 12 -18 99 -73 106 -67 3 4 6 2 6 -4 0 -11 103 -83 119 -83 5 0 11 -4 13
-8 6 -14 95 -71 102 -65 3 4 6 2 6 -4 0 -11 103 -83 119 -83 5 0 11 -4 13 -8
6 -14 95 -71 102 -65 3 4 6 2 6 -4 0 -11 103 -83 119 -83 5 0 11 -4 13 -8 6
-14 95 -71 102 -65 3 4 6 2 6 -4 0 -11 103 -83 119 -83 5 0 11 -4 13 -8 6 -14
95 -71 102 -65 3 4 6 2 6 -4 0 -11 103 -83 119 -83 5 0 11 -4 13 -8 6 -14 95
-71 102 -65 3 4 6 2 6 -4 0 -11 103 -83 119 -83 5 0 11 -4 13 -8 6 -14 95 -71
102 -65 3 4 6 2 6 -4 0 -11 75 -64 96 -67 7 -1 17 -5 20 -9 18 -18 46 -5 60
28 12 30 14 117 14 535 -1 345 2 506 10 520 6 11 8 26 4 32 -4 6 -3 8 3 5 5
-3 17 10 28 29 10 19 24 34 32 34 7 0 13 4 13 8 0 15 106 35 144 28 20 -4 39
-7 43 -7 5 0 16 -8 26 -16 9 -9 17 -13 17 -9 0 4 17 -5 38 -22 20 -16 504
-340 1076 -721 970 -646 1139 -761 1122 -761 -3 0 2 -12 11 -27 13 -19 18 -46
18 -93 -1 -79 -25 -124 -93 -174 -62 -45 -2153 -1440 -2167 -1445 -5 -2 -16
-9 -24 -14 -16 -14 -33 -18 -93 -24 -36 -4 -59 1 -95 18 -27 12 -52 29 -56 36
-5 7 -18 22 -29 33 -12 11 -19 20 -16 20 4 0 2 15 -3 33 -5 18 -9 244 -9 530
0 434 -2 501 -15 528 -13 24 -22 30 -43 27 -26 -2 -233 -132 -240 -150 -2 -4
-8 -8 -13 -8 -12 0 -223 -141 -227 -152 -2 -4 -8 -8 -13 -8 -12 0 -223 -141
-227 -152 -2 -4 -8 -8 -13 -8 -12 0 -223 -141 -227 -152 -2 -4 -8 -8 -13 -8
-12 0 -223 -141 -227 -152 -2 -4 -8 -8 -13 -8 -12 0 -223 -141 -227 -152 -2
-4 -8 -8 -13 -8 -16 0 -119 -72 -119 -83 0 -6 -3 -8 -6 -4 -7 6 -94 -49 -106
-67 -4 -6 -11 -11 -15 -11 -4 0 -42 -23 -83 -50 -72 -48 -78 -50 -145 -50 -85
0 -126 21 -170 86 l-30 44 0 1530 c0 1515 0 1530 20 1554 11 13 29 35 40 48
30 36 90 54 158 48 47 -4 71 -13 130 -52z"/>
</g>
</svg>
